<?xml version="1.0" encoding="UTF-8" standalone="no"?>
<!DOCTYPE svg PUBLIC "-//W3C//DTD SVG 1.1//EN" "http://www.w3.org/Graphics/SVG/1.1/DTD/svg11.dtd">
<svg width="100%" height="100%" viewBox="0 0 1749 1241" version="1.1" xmlns="http://www.w3.org/2000/svg" xmlns:xlink="http://www.w3.org/1999/xlink" xml:space="preserve" xmlns:serif="http://www.serif.com/" style="fill-rule:evenodd;clip-rule:evenodd;stroke-linejoin:round;stroke-miterlimit:2;">
    <g transform="matrix(1.0915,0.46806,0.8158,-1.90241,-613.641,2278.26)">
        <path d="M844.078,953.664L519.81,953.664C503.378,939.787 494.728,924.044 494.728,908.02C494.728,857.637 578.616,816.732 681.944,816.732C785.271,816.732 869.16,857.637 869.16,908.02C869.16,924.044 860.51,939.787 844.078,953.664Z" style="fill:rgb(255,242,194);"/>
    </g>
    <g transform="matrix(0.906099,0.423065,-0.423065,0.906099,414.381,-174.043)">
        <rect x="638.545" y="156.365" width="447.501" height="603.076" style="fill:white;"/>
    </g>
    <g transform="matrix(0.46565,0.217725,-0.674912,1.44344,834.115,-75.7955)">
        <rect x="417.51" y="153.128" width="293.842" height="380.088" style="fill:rgb(0,143,255);"/>
    </g>
    <g transform="matrix(0.96613,0.451566,-0.48448,1.03655,1043.27,-155.721)">
        <rect x="333.421" y="354.362" width="138.678" height="525.493"/>
    </g>
</svg>
