<?xml version="1.0" encoding="UTF-8" standalone="no"?>
<!DOCTYPE svg PUBLIC "-//W3C//DTD SVG 1.1//EN" "http://www.w3.org/Graphics/SVG/1.1/DTD/svg11.dtd">
<svg width="100%" height="100%" viewBox="0 0 1749 1241" version="1.1" xmlns="http://www.w3.org/2000/svg" xmlns:xlink="http://www.w3.org/1999/xlink" xml:space="preserve" xmlns:serif="http://www.serif.com/" style="fill-rule:evenodd;clip-rule:evenodd;stroke-linejoin:round;stroke-miterlimit:2;">
    <path d="M583.486,572.332L963.845,1081.37L1404.09,819.969L927.428,373.25L583.486,572.332Z" style="fill:rgb(144,0,0);"/>
    <path d="M605.012,563.632L976.297,1037.52L1343.35,816.973L913.358,386.452L605.012,563.632Z" style="fill:white;"/>
    <path d="M727.74,627.832C723.832,629.889 718.991,628.386 716.934,624.479C714.878,620.572 716.38,615.73 720.288,613.674C800.605,571.401 843.827,547.672 854.503,541.811C890.808,521.879 889.266,520.088 925.34,500.047C929.2,497.903 934.074,499.296 936.218,503.155C938.363,507.015 936.97,511.889 933.11,514.034C897.001,534.094 898.543,535.885 862.203,555.836C851.507,561.708 808.206,585.482 727.74,627.832Z"/>
    <path d="M795.068,699.502C791.596,702.23 786.563,701.626 783.835,698.154C781.107,694.682 781.711,689.649 785.183,686.921C800.493,674.892 799.004,673.715 815.431,663.202C866.831,630.306 921.141,594.94 967.951,582.86C972.226,581.756 976.593,584.332 977.696,588.607C978.8,592.882 976.224,597.249 971.949,598.352C926.505,610.08 873.955,644.743 824.056,676.678C808.289,686.769 809.763,687.956 795.068,699.502Z"/>
    <path d="M825.241,788.336C821.781,791.078 816.745,790.495 814.003,787.035C811.26,783.574 811.843,778.538 815.304,775.796C891.769,715.201 890.994,714.196 977.975,670.206C979.09,669.642 1049.04,627.648 1055.22,623.942C1059,621.67 1063.92,622.9 1066.19,626.686C1068.46,630.472 1067.24,635.39 1063.45,637.662C1057.19,641.415 986.326,683.913 985.196,684.484C899.661,727.743 900.435,728.749 825.241,788.336Z"/>
    <path d="M680.644,502.809L695.453,532.956L840.9,448.862L817.099,421.359" style="fill:rgb(172,172,172);"/>
    <path d="M730.889,489.058L794.357,450.978L764.21,429.822L722.956,450.449" style="fill:rgb(172,172,172);"/>
</svg>
